<svg xmlns="http://www.w3.org/2000/svg" xmlns:xlink="http://www.w3.org/1999/xlink" version="1.1" width="25" height="24" viewBox="0 0 256 256" xml:space="preserve">

<defs>
</defs>
<g style="stroke: none; stroke-width: 0; stroke-dasharray: none; stroke-linecap: butt; stroke-linejoin: miter; stroke-miterlimit: 10; fill: none; fill-rule: nonzero; opacity: 1;" transform="translate(1.4065934065934016 1.4065934065934016) scale(2.81 2.81)" >
	<path d="M 45 75.798 c -2.508 0 -4.548 -2.04 -4.548 -4.548 v -9.058 c -2.3 -1.759 -3.379 -4.671 -2.762 -7.569 c 0.598 -2.812 2.891 -5.097 5.705 -5.685 c 2.259 -0.474 4.562 0.076 6.32 1.505 c 1.759 1.429 2.767 3.547 2.767 5.81 c 0 2.343 -1.088 4.525 -2.935 5.939 v 9.058 C 49.548 73.758 47.507 75.798 45 75.798 z M 44.985 50.774 c -0.391 0 -0.786 0.04 -1.18 0.122 c -2.051 0.429 -3.722 2.094 -4.158 4.143 c -0.483 2.269 0.441 4.546 2.354 5.8 c 0.282 0.185 0.452 0.499 0.452 0.836 v 9.575 c 0 1.405 1.143 2.547 2.547 2.547 s 2.547 -1.143 2.547 -2.547 v -9.575 c 0 -0.337 0.17 -0.651 0.452 -0.836 c 1.555 -1.02 2.483 -2.734 2.483 -4.586 c 0 -1.658 -0.739 -3.21 -2.028 -4.258 C 47.47 51.197 46.249 50.774 44.985 50.774 z" style="stroke: none; stroke-width: 1; stroke-dasharray: none; stroke-linecap: butt; stroke-linejoin: miter; stroke-miterlimit: 10; fill: rgb(0,0,0); fill-rule: nonzero; opacity: 1;" transform=" matrix(1 0 0 1 0 0) " stroke-linecap="round" />
	<path d="M 20.4 37.71 c -0.552 0 -1 -0.448 -1 -1 V 25.593 C 19.399 11.477 30.884 -0.008 45 -0.008 c 14.116 0 25.6 11.484 25.6 25.601 v 10.886 c 0 0.552 -0.447 1 -1 1 c -0.553 0 -1 -0.448 -1 -1 V 25.593 c 0 -13.013 -10.587 -23.6 -23.6 -23.6 s -23.6 10.587 -23.6 23.6 V 36.71 C 21.4 37.262 20.952 37.71 20.4 37.71 z M 62.274 36.314 c -0.553 0 -1 -0.448 -1 -1 v -9.721 c 0 -8.974 -7.301 -16.275 -16.274 -16.275 c -8.974 0 -16.275 7.301 -16.275 16.275 v 9.721 c 0 0.552 -0.448 1 -1 1 c -0.552 0 -1 -0.448 -1 -1 v -9.721 c 0 -10.077 8.198 -18.276 18.276 -18.276 c 10.077 0 18.275 8.198 18.275 18.276 v 9.721 C 63.275 35.866 62.827 36.314 62.274 36.314 z" style="stroke: none; stroke-width: 1; stroke-dasharray: none; stroke-linecap: butt; stroke-linejoin: miter; stroke-miterlimit: 10; fill: rgb(0,0,0); fill-rule: nonzero; opacity: 1;" transform=" matrix(1 0 0 1 0 0) " stroke-linecap="round" />
	<path d="M 45 89.992 c -9.297 0 -18.594 -1.159 -27.827 -3.478 c -2.929 -0.736 -4.975 -3.368 -4.975 -6.399 V 42.847 c 0 -3.032 2.046 -5.664 4.975 -6.399 c 18.465 -4.639 37.19 -4.638 55.653 0 c 2.93 0.735 4.976 3.366 4.976 6.399 v 37.268 c 0 3.031 -2.046 5.662 -4.975 6.399 C 63.594 88.833 54.297 89.992 45 89.992 z M 45 34.971 c -9.134 0 -18.269 1.139 -27.339 3.417 c -2.038 0.512 -3.462 2.345 -3.462 4.459 v 37.268 c 0 2.113 1.424 3.946 3.462 4.459 c 18.141 4.556 36.539 4.554 54.679 0 c 2.038 -0.513 3.463 -2.346 3.463 -4.459 V 42.847 c 0 -2.114 -1.424 -3.947 -3.463 -4.459 C 63.269 36.111 54.134 34.971 45 34.971 z" style="stroke: none; stroke-width: 1; stroke-dasharray: none; stroke-linecap: butt; stroke-linejoin: miter; stroke-miterlimit: 10; fill: rgb(0,0,0); fill-rule: nonzero; opacity: 1;" transform=" matrix(1 0 0 1 0 0) " stroke-linecap="round" />
</g>
</svg>